<?xml version="1.0" encoding="iso-8859-1"?>
<!-- Generator: Adobe Illustrator 19.0.0, SVG Export Plug-In . SVG Version: 6.00 Build 0)  -->
<svg class="svg-icon" version="1.1" id="Capa_1" xmlns="http://www.w3.org/2000/svg" xmlns:xlink="http://www.w3.org/1999/xlink" x="0px" y="0px"
	 viewBox="0 0 439.04 439.04" style="enable-background:new 0 0 439.04 439.04;" xml:space="preserve">
<g>
	<g>
		<path d="M426.439,134.187l-18.773-10.88V10.667C407.666,4.776,402.89,0,396.999,0h-99.413c-5.891,0-10.667,4.776-10.667,10.667
			v42.667L225.266,18.56c-3.3-1.905-7.366-1.905-10.667,0l-61.653,35.627V11.52c0.471-5.872-3.907-11.015-9.779-11.486
			c-0.295-0.024-0.591-0.035-0.888-0.034H42.653c-5.891,0-10.667,4.776-10.667,10.667v113.067l-19.413,10.453
			c-3.28,1.894-5.31,5.385-5.333,9.173v285.013c0,5.891,4.776,10.667,10.667,10.667h403.2c5.891,0,10.667-4.776,10.667-10.667
			v-284.16C432.07,140.124,429.996,136.226,426.439,134.187z M308.466,21.333h78.08v90.027l-78.293-45.227L308.466,21.333z
			 M53.533,21.333h78.08v44.8L53.319,111.36L53.533,21.333z M248.733,417.707h-58.453V300.16h58.453V417.707z M410.013,417.707
			H270.066v-128c0-5.891-4.776-10.667-10.667-10.667h-79.787c-5.891,0-10.667,4.776-10.667,10.667v128H28.573V150.4l20.267-11.093
			l13.013-7.68l157.653-91.52l190.507,110.08V417.707z"/>
	</g>
</g>
<g>
	<g>
		<path d="M140.359,167.68H98.973c-5.891,0-10.667,4.776-10.667,10.667v41.173c0,5.891,4.776,10.667,10.667,10.667h41.387
			c5.891,0,10.667-4.776,10.667-10.667v-41.173C151.026,172.456,146.25,167.68,140.359,167.68z M129.693,208.853h-20.053v-19.84
			h20.053V208.853z"/>
	</g>
</g>
<g>
	<g>
		<path d="M240.839,167.68h-42.667c-5.891,0-10.667,4.776-10.667,10.667v41.173c0,5.891,4.776,10.667,10.667,10.667h42.667
			c5.891,0,10.667-4.776,10.667-10.667v-41.173C251.506,172.456,246.73,167.68,240.839,167.68z M228.893,208.853h-20.053v-19.84
			h20.053V208.853z"/>
	</g>
</g>
<g>
	<g>
		<path d="M340.253,167.68h-41.6c-5.891,0-10.667,4.776-10.667,10.667v41.173c0,5.891,4.776,10.667,10.667,10.667h41.6
			c5.891,0,10.667-4.776,10.667-10.667v-41.173C350.919,172.456,346.144,167.68,340.253,167.68z M329.586,208.853h-20.267v-19.84
			h20.267V208.853z"/>
	</g>
</g>
<g>
	<g>
		<path d="M140.359,291.84H98.973c-5.891,0-10.667,4.776-10.667,10.667v41.6c0,5.891,4.776,10.667,10.667,10.667h41.387
			c5.891,0,10.667-4.776,10.667-10.667v-41.6C151.026,296.616,146.25,291.84,140.359,291.84z M129.693,333.44h-20.053v-20.267
			h20.053V333.44z"/>
	</g>
</g>
<g>
	<g>
		<path d="M340.253,291.84h-41.6c-5.891,0-10.667,4.776-10.667,10.667v41.6c0,5.891,4.776,10.667,10.667,10.667h41.6
			c5.891,0,10.667-4.776,10.667-10.667v-41.6C350.919,296.616,346.144,291.84,340.253,291.84z M329.586,333.44h-20.267v-20.267
			h20.267V333.44z"/>
	</g>
</g>
<g>
</g>
<g>
</g>
<g>
</g>
<g>
</g>
<g>
</g>
<g>
</g>
<g>
</g>
<g>
</g>
<g>
</g>
<g>
</g>
<g>
</g>
<g>
</g>
<g>
</g>
<g>
</g>
<g>
</g>
</svg>
