<?xml version="1.0" encoding="iso-8859-1"?>
<!-- Generator: Adobe Illustrator 19.0.0, SVG Export Plug-In . SVG Version: 6.00 Build 0)  -->
<svg class="svg-icon" version="1.1" id="Capa_1" xmlns="http://www.w3.org/2000/svg" xmlns:xlink="http://www.w3.org/1999/xlink" x="0px" y="0px"
	 viewBox="0 0 437.025 437.025" style="enable-background:new 0 0 437.025 437.025;" xml:space="preserve">
<g>
	<g>
		<path d="M242.572,40.093c-1.355-5.891-7.229-9.568-13.12-8.213L8.225,85c-5.734,1.35-9.289,7.093-7.939,12.827
			c0.015,0.062,0.03,0.124,0.046,0.187c1.186,4.797,5.512,8.152,10.453,8.107h2.56l221.013-52.907
			C240.249,51.858,243.927,45.984,242.572,40.093z"/>
	</g>
</g>
<g>
	<g>
		<path d="M426.358,221.533H242.465V101c-0.091-5.89-4.94-10.591-10.83-10.5c-0.735,0.011-1.466,0.099-2.183,0.26L8.225,143.24
			c-4.797,1.186-8.152,5.512-8.107,10.453V394.76c0,5.891,4.776,10.667,10.667,10.667h415.573c5.891,0,10.667-4.776,10.667-10.667
			V232.2C437.025,226.309,432.25,221.533,426.358,221.533z M111.905,383.88H72.652v-60.16h39.253V383.88z M170.358,383.88
			l-37.12,0.213V323.72h37.12V383.88z M221.132,384.093h-29.44v-71.04c0-5.891-4.776-10.667-10.667-10.667H61.985
			c-5.891,0-10.667,4.776-10.667,10.667v70.827H21.452V162.013l199.68-47.573V384.093z M371.958,384.093h-83.627v-17.92h83.627
			V384.093z M371.958,344.84h-84.693v-15.787h84.693V344.84z M287.265,307.72V289.8h83.627l1.067,17.92H287.265z M392.865,384.093
			v-104.96c0-5.891-4.776-10.667-10.667-10.667h-105.6c-5.891,0-10.667,4.776-10.667,10.667v104.96h-23.467V242.866h173.227
			l0.64,141.227H392.865z"/>
	</g>
</g>
<g>
	<g>
		<path d="M73.718,242.866h-8.96c-5.891,0-10.667,4.776-10.667,10.667c0,5.891,4.776,10.667,10.667,10.667h8.96
			c5.891,0,10.667-4.776,10.667-10.667C84.385,247.642,79.61,242.866,73.718,242.866z"/>
	</g>
</g>
<g>
	<g>
		<path d="M125.985,242.866h-8.96c-5.891,0-10.667,4.776-10.667,10.667c0,5.891,4.776,10.667,10.667,10.667h8.96
			c5.891,0,10.667-4.776,10.667-10.667C136.652,247.642,131.876,242.866,125.985,242.866z"/>
	</g>
</g>
<g>
	<g>
		<path d="M178.252,242.866h-8.96c-5.891,0-10.667,4.776-10.667,10.667c0,5.891,4.776,10.667,10.667,10.667h8.96
			c5.891,0,10.667-4.776,10.667-10.667C188.918,247.642,184.143,242.866,178.252,242.866z"/>
	</g>
</g>
<g>
	<g>
		<path d="M73.718,191.88h-8.96c-5.891,0-10.667,4.776-10.667,10.667c0,5.891,4.776,10.667,10.667,10.667h8.96
			c5.891,0,10.667-4.776,10.667-10.667C84.385,196.655,79.61,191.88,73.718,191.88z"/>
	</g>
</g>
<g>
	<g>
		<path d="M125.985,191.88h-8.96c-5.891,0-10.667,4.776-10.667,10.667c0,5.891,4.776,10.667,10.667,10.667h8.96
			c5.891,0,10.667-4.776,10.667-10.667C136.652,196.655,131.876,191.88,125.985,191.88z"/>
	</g>
</g>
<g>
	<g>
		<path d="M178.252,191.88h-8.96c-5.891,0-10.667,4.776-10.667,10.667c0,5.891,4.776,10.667,10.667,10.667h8.96
			c5.891,0,10.667-4.776,10.667-10.667C188.918,196.655,184.143,191.88,178.252,191.88z"/>
	</g>
</g>
<g>
</g>
<g>
</g>
<g>
</g>
<g>
</g>
<g>
</g>
<g>
</g>
<g>
</g>
<g>
</g>
<g>
</g>
<g>
</g>
<g>
</g>
<g>
</g>
<g>
</g>
<g>
</g>
<g>
</g>
</svg>
