<?xml version="1.0" encoding="iso-8859-1"?>
<!-- Generator: Adobe Illustrator 19.0.0, SVG Export Plug-In . SVG Version: 6.00 Build 0)  -->
<svg class="svg-icon" version="1.1" id="Capa_1" xmlns="http://www.w3.org/2000/svg" xmlns:xlink="http://www.w3.org/1999/xlink" x="0px" y="0px"
	 viewBox="0 0 438.861 438.861" style="enable-background:new 0 0 438.861 438.861;" xml:space="preserve">
<g>
	<g>
		<path d="M120.014,248.32H64.121c-5.891,0-10.667,4.776-10.667,10.667v81.493c0,5.891,4.776,10.667,10.667,10.667h55.893
			c5.891,0,10.667-4.776,10.667-10.667v-81.493C130.681,253.096,125.905,248.32,120.014,248.32z M109.347,329.813h-34.56v-60.16
			h34.56V329.813z"/>
	</g>
</g>
<g>
	<g>
		<path d="M375.587,248.32h-56.96c-5.891,0-10.667,4.776-10.667,10.667v81.493c0,5.891,4.776,10.667,10.667,10.667h56.96
			c5.891,0,10.667-4.776,10.667-10.667v-81.493C386.254,253.096,381.478,248.32,375.587,248.32z M364.921,329.813h-35.627v-60.16
			h35.627V329.813z"/>
	</g>
</g>
<g>
	<g>
		<path d="M427.001,133.76L225.187,17.92c-3.3-1.905-7.366-1.905-10.667,0l-61.653,35.413V10.667C152.867,4.776,148.092,0,142.201,0
			H41.934c-5.891,0-10.667,4.776-10.667,10.667v112.64l-18.56,10.453c-3.746,1.733-6.156,5.473-6.187,9.6v284.8
			c-0.019,5.891,4.741,10.682,10.632,10.701c0.296,0.001,0.592-0.01,0.888-0.034h403.627c5.891,0,10.667-4.776,10.667-10.667v-284.8
			C432.467,139.42,430.416,135.729,427.001,133.76z M52.601,20.693h78.933v45.013l-78.933,45.44V20.693z M261.027,417.493h-82.347
			v-147.84h82.347V417.493z M411.854,417.493H282.361V258.987c0-5.891-4.776-10.667-10.667-10.667h-103.68
			c-5.891,0-10.667,4.776-10.667,10.667v158.507H27.854v-189.44l192-110.08l192,110.08V417.493z M411.854,203.52L225.827,96.853
			c-3.3-1.905-7.366-1.905-10.667,0L27.854,203.52v-53.973l18.133-10.453l100.267-57.387l73.6-42.24l192,110.08V203.52z"/>
	</g>
</g>
<g>
</g>
<g>
</g>
<g>
</g>
<g>
</g>
<g>
</g>
<g>
</g>
<g>
</g>
<g>
</g>
<g>
</g>
<g>
</g>
<g>
</g>
<g>
</g>
<g>
</g>
<g>
</g>
<g>
</g>
</svg>
