<?xml version="1.0" encoding="utf-8"?>
<!-- Generator: Adobe Illustrator 22.0.1, SVG Export Plug-In . SVG Version: 6.00 Build 0)  -->
<svg version="1.1" id="Ebene_1" xmlns="http://www.w3.org/2000/svg" xmlns:xlink="http://www.w3.org/1999/xlink" x="0px" y="0px"
	 viewBox="0 0 245.3 245.3" style="enable-background:new 0 0 245.3 245.3;" xml:space="preserve">
<g>
	<path d="M48.1,141.2H35.8v14h11.9c4.5,0,9-1.2,9-7C56.7,142.7,53.3,141.2,48.1,141.2z"/>
	<path d="M233.7,98.9H208l-72.4-63c0.4-1.3,0.7-2.7,0.7-4.1c0-7.7-6.2-13.9-13.9-13.9s-13.9,6.2-13.9,13.9c0,1.4,0.3,2.8,0.7,4.1
		l-72.4,63H11.1c-3.1,0-5.6,2.5-5.6,5.6v111.3c0,3.1,2.5,5.6,5.6,5.6h222.6c3.1,0,5.6-2.5,5.6-5.6V104.5
		C239.3,101.4,236.8,98.9,233.7,98.9z M116.5,44.4c1.8,0.9,3.8,1.4,5.9,1.4s4.1-0.5,5.9-1.4l62.7,54.5H53.7L116.5,44.4z M66.8,169.8
		c0,6,1.6,8.3,1.6,10.7c0,2.7-2.8,4.6-5.6,4.6c-6.5,0-7-6.3-7-8.4c0-9.1-1.7-12.8-8.2-12.8H35.8v15.3c0,3.5-2.3,5.9-5.9,5.9
		s-5.9-2.4-5.9-5.9v-40.2c0-5.3,2.7-6.9,6.9-6.9h19.8c14.1,0,17.9,7.7,17.9,14.5c0,5.6-3.3,11.2-9,12.5v0.1
		C65.7,160.1,66.8,164.5,66.8,169.8z M113.3,184.2H84.8c-4.2,0-6.9-1.7-6.9-6.9v-38.2c0-5.3,2.7-6.9,6.9-6.9h27.9c3.5,0,6,1,6,4.8
		c0,3.8-2.5,4.8-6,4.8H89.8V153h20.1c3.1,0,5.6,0.9,5.6,4.6c0,3.7-2.5,4.6-5.6,4.6H89.8v12.6h23.5c3.5,0,6,1,6,4.8
		C119.3,183.2,116.8,184.2,113.3,184.2z M172.7,177.8c0,4.7-2,7.4-7,7.4c-3.8,0-5-0.8-6.5-3.2l-20.6-32.6h-0.1v30
		c0,3.8-2.2,5.7-5.7,5.7s-5.7-1.9-5.7-5.7v-41.3c0-4.9,2.4-6.9,7.5-6.9c2.5,0,4.6,0.9,5.9,3.1l20.8,33.5h0.1v-30.9
		c0-3.8,2.2-5.7,5.7-5.7c3.5,0,5.7,1.9,5.7,5.7L172.7,177.8L172.7,177.8z M219.3,142.1h-11.2v37.1c0,3.5-2.3,5.9-5.9,5.9
		c-3.6,0-5.9-2.4-5.9-5.9v-37.1H185c-3.4,0-6.2-1.7-6.2-5c0-3.3,2.8-5,6.2-5h34.3c3.4,0,6.2,1.7,6.2,5
		C225.4,140.4,222.7,142.1,219.3,142.1z"/>
</g>
</svg>
