<svg id="2264924c-fd31-4661-95c2-a87dc5e80745" data-name="Layer 1" xmlns="http://www.w3.org/2000/svg" viewBox="0 0 59.69 54.72"
class="prt-option-icon">
  <defs>
    <style>
      .eacc6d48-f284-4591-8b40-447634c34907 {
        fill: #56aaff;
      }

      .f7de1f43-cbde-4d98-983a-9327dc04e816 {
        fill: #d9dce1;
      }

      .\36 78c461b-300a-4dfb-b578-c92b622eba11 {
        fill: #0478ed;
      }
    </style>
  </defs>
  <title>floor-3</title>
  <polygon class="eacc6d48-f284-4591-8b40-447634c34907 prt-icon-color" points="59.7 23.63 0 23.63 4.97 3.73 54.72 3.73 59.7 23.63"/>
  <rect class="f7de1f43-cbde-4d98-983a-9327dc04e816" x="3.73" y="23.63" width="52.23" height="31.09"/>
  <polygon class="f7de1f43-cbde-4d98-983a-9327dc04e816" points="44.77 17.41 29.85 7.46 14.92 17.41 14.92 28.6 44.77 28.6 44.77 17.41"/>
  <rect class="eacc6d48-f284-4591-8b40-447634c34907 prt-icon-color" x="39.8" width="7.46" height="4.97"/>
  <path class="678c461b-300a-4dfb-b578-c92b622eba11 prt-icon-color-dark" d="M36.93,36.22A3.93,3.93,0,0,1,36,38.9a4.62,4.62,0,0,1-2.61,1.39v.1a4.92,4.92,0,0,1,3.06,1.31,3.89,3.89,0,0,1,1,2.77,4.49,4.49,0,0,1-1.7,3.76,7.75,7.75,0,0,1-4.83,1.32,14.61,14.61,0,0,1-2.49-.2,8.72,8.72,0,0,1-2.2-.72V46.77a10.42,10.42,0,0,0,2.37.84A10.89,10.89,0,0,0,31,47.9q4.44,0,4.44-3.48,0-3.12-4.9-3.12H28.85V39.63h1.71a5.15,5.15,0,0,0,3.18-.89,2.9,2.9,0,0,0,1.17-2.45,2.42,2.42,0,0,0-.86-2,3.52,3.52,0,0,0-2.34-.72,7,7,0,0,0-2.12.31A9.63,9.63,0,0,0,27.32,35l-1-1.31a8.52,8.52,0,0,1,2.44-1.31,9,9,0,0,1,2.9-.47,5.91,5.91,0,0,1,3.87,1.14A3.84,3.84,0,0,1,36.93,36.22Z" transform="translate(-2.15 -4.64)"/>
</svg>
