<svg id="732f5f08-00b0-4a93-86ae-820c018a404d" data-name="Layer 1" xmlns="http://www.w3.org/2000/svg" viewBox="0 0 59.69 54.72"
class="prt-option-icon">
  <defs>
    <style>
      .\37 8b57d69-411e-4a76-a022-0f143cb5f9a3 {
        fill: #56aaff;
      }

      .\38 a7c92c2-3ea1-40db-9ee5-d07d95656ab4 {
        fill: #d9dce1;
      }

      .\38 4cde2c2-c1dc-4826-89f4-bc9dc9fe40b4 {
        fill: #0478ed;
      }
    </style>
  </defs>
  <title>floor-6</title>
  <polygon class="78b57d69-411e-4a76-a022-0f143cb5f9a3 prt-icon-color" points="59.7 23.63 0 23.63 4.97 3.73 54.72 3.73 59.7 23.63"/>
  <rect class="8a7c92c2-3ea1-40db-9ee5-d07d95656ab4" x="3.73" y="23.63" width="52.23" height="31.09"/>
  <polygon class="8a7c92c2-3ea1-40db-9ee5-d07d95656ab4" points="44.77 17.41 29.85 7.46 14.92 17.41 14.92 28.6 44.77 28.6 44.77 17.41"/>
  <rect class="78b57d69-411e-4a76-a022-0f143cb5f9a3 prt-icon-color" x="39.8" width="7.46" height="4.97"/>
  <g>
    <path class="84cde2c2-c1dc-4826-89f4-bc9dc9fe40b4 prt-icon-color-dark" d="M19.65,42q0-5,2-7.55a6.94,6.94,0,0,1,5.81-2.5,7.62,7.62,0,0,1,2.08.22v1.68a6.52,6.52,0,0,0-2.06-.3,5.24,5.24,0,0,0-4.21,1.72,8.84,8.84,0,0,0-1.59,5.4h.14a4.48,4.48,0,0,1,4.08-2A4.8,4.8,0,0,1,29.5,40a5.28,5.28,0,0,1,1.33,3.78A5.85,5.85,0,0,1,29.37,48a5.19,5.19,0,0,1-3.94,1.53,5,5,0,0,1-4.22-2A8.82,8.82,0,0,1,19.65,42ZM25.4,47.9a3.27,3.27,0,0,0,2.59-1,4.48,4.48,0,0,0,.92-3,3.91,3.91,0,0,0-.86-2.67,3.21,3.21,0,0,0-2.55-1,4.31,4.31,0,0,0-1.94.43,3.64,3.64,0,0,0-1.4,1.2,2.71,2.71,0,0,0-.52,1.58,5.5,5.5,0,0,0,.47,2.25,4,4,0,0,0,1.33,1.65A3.28,3.28,0,0,0,25.4,47.9Z" transform="translate(-2.15 -4.64)"/>
    <path class="84cde2c2-c1dc-4826-89f4-bc9dc9fe40b4 prt-icon-color-dark" d="M39.65,40.05h4.83v1.62H39.65v5H38v-5h-4.8V40.05H38V35h1.63Z" transform="translate(-2.15 -4.64)"/>
  </g>
</svg>
