<svg id="a5487e8f-fa0d-48f2-8505-bd485c589903" data-name="Layer 1" xmlns="http://www.w3.org/2000/svg" viewBox="0 0 59.69 54.72"
class="prt-option-icon">
  <defs>
    <style>
      .c8876bdd-3f81-44b7-b9e9-11ab9f355bb0 {
        fill: #56aaff;
      }

      .\32 39b60dd-e5d0-4959-8be5-3cce339d5d51 {
        fill: #d9dce1;
      }

      .e4a8d8d1-bf35-4f95-8119-a365c2a92962 {
        fill: #0478ed;
      }
    </style>
  </defs>
  <title>floor-2</title>
  <polygon class="c8876bdd-3f81-44b7-b9e9-11ab9f355bb0 prt-icon-color" points="59.7 23.63 0 23.63 4.97 3.73 54.72 3.73 59.7 23.63"/>
  <rect class="239b60dd-e5d0-4959-8be5-3cce339d5d51" x="3.73" y="23.63" width="52.23" height="31.09"/>
  <polygon class="239b60dd-e5d0-4959-8be5-3cce339d5d51" points="44.77 17.41 29.85 7.46 14.92 17.41 14.92 28.6 44.77 28.6 44.77 17.41"/>
  <rect class="c8876bdd-3f81-44b7-b9e9-11ab9f355bb0 prt-icon-color" x="39.8" width="7.46" height="4.97"/>
  <path class="e4a8d8d1-bf35-4f95-8119-a365c2a92962 prt-icon-color-dark" d="M37.57,49.32H26.31V47.64l4.51-4.53a33.24,33.24,0,0,0,2.72-3,7.54,7.54,0,0,0,1-1.73,5.2,5.2,0,0,0,.32-1.82A2.85,2.85,0,0,0,34,34.41a3.16,3.16,0,0,0-2.31-.81,5.92,5.92,0,0,0-2,.35,8.25,8.25,0,0,0-2.13,1.28l-1-1.32a7.92,7.92,0,0,1,5.16-2,5.4,5.4,0,0,1,3.78,1.24,4.23,4.23,0,0,1,1.38,3.32,6.42,6.42,0,0,1-.92,3.22,20.45,20.45,0,0,1-3.42,4l-3.75,3.67v.09h8.81Z" transform="translate(-2.15 -4.64)"/>
</svg>
