<svg id="594e69c6-4e71-46fa-bb78-ecf73b924ca6" data-name="Layer 1" xmlns="http://www.w3.org/2000/svg" viewBox="0 0 59.69 54.72"
class="prt-option-icon">
  <defs>
    <style>
      .c0194659-870f-45db-9ce1-c358da688a5d {
        fill: #56aaff;
      }

      .d8dc5bba-04c6-4df1-97a5-2df3cce587c2 {
        fill: #d9dce1;
      }

      .\32 00495de-b797-4a75-8c7d-b08b73ca28e5 {
        fill: #0478ed;
      }
    </style>
  </defs>
  <title>floor-5</title>
  <polygon class="c0194659-870f-45db-9ce1-c358da688a5d prt-icon-color" points="59.7 23.63 0 23.63 4.97 3.73 54.72 3.73 59.7 23.63"/>
  <rect class="d8dc5bba-04c6-4df1-97a5-2df3cce587c2" x="3.73" y="23.63" width="52.23" height="31.09"/>
  <polygon class="d8dc5bba-04c6-4df1-97a5-2df3cce587c2" points="44.77 17.41 29.85 7.46 14.92 17.41 14.92 28.6 44.77 28.6 44.77 17.41"/>
  <rect class="c0194659-870f-45db-9ce1-c358da688a5d prt-icon-color" x="39.8" width="7.46" height="4.97"/>
  <path class="200495de-b797-4a75-8c7d-b08b73ca28e5 prt-icon-color-dark" d="M31.67,38.85a6.34,6.34,0,0,1,4.26,1.34,4.63,4.63,0,0,1,1.55,3.68A5.34,5.34,0,0,1,35.79,48a6.76,6.76,0,0,1-4.67,1.51,8.67,8.67,0,0,1-4.42-.92V46.75a6.63,6.63,0,0,0,2,.83,10,10,0,0,0,2.4.3,4.78,4.78,0,0,0,3.2-1,3.45,3.45,0,0,0,1.15-2.81q0-3.59-4.4-3.58a17.93,17.93,0,0,0-3,.33l-1-.64.64-8h8.52V34H29.42L29,39.12A13.71,13.71,0,0,1,31.67,38.85Z" transform="translate(-2.15 -4.64)"/>
</svg>
