<svg id="4b0d0630-975a-4575-a14f-e887f344f478" data-name="Layer 1" xmlns="http://www.w3.org/2000/svg" viewBox="0 0 57.75 60.26"
class="prt-icon prt-option-icon">
  <defs>
    <style>
      .\35 fcb01d9-9088-4977-8a3d-e5bbbf9ecfe9 {
        fill: none;
        stroke: #d9dce1;
        stroke-miterlimit: 10;
        stroke-width: 3px;
      }

      .\32 5329d2a-4496-40e3-b7e0-c4aceaa7a179 {
        fill: #d9dce1;
      }

      .d6f07ebe-bb28-4c61-a669-7d347939fcfb {
        fill: #56aaff;
      }

      .\31 8a22246-4d7e-4421-8cb3-720e467dee5d {
        fill: #fff;
      }
    </style>
  </defs>
  <title>grundflache</title>
  <g>
    <line class="5fcb01d9-9088-4977-8a3d-e5bbbf9ecfe9" x1="19.46" y1="54.61" x2="49.59" y2="54.61"/>
    <polygon class="25329d2a-4496-40e3-b7e0-c4aceaa7a179" points="21.09 60.26 11.3 54.61 21.09 48.96 21.09 60.26"/>
    <polygon class="25329d2a-4496-40e3-b7e0-c4aceaa7a179" points="47.96 60.26 57.75 54.61 47.96 48.96 47.96 60.26"/>
  </g>
  <g>
    <line class="5fcb01d9-9088-4977-8a3d-e5bbbf9ecfe9" x1="5.65" y1="38.29" x2="5.65" y2="8.16"/>
    <polygon class="25329d2a-4496-40e3-b7e0-c4aceaa7a179" points="11.3 36.66 5.65 46.45 0 36.66 11.3 36.66"/>
    <polygon class="25329d2a-4496-40e3-b7e0-c4aceaa7a179" points="11.3 9.79 5.65 0 0 9.79 11.3 9.79"/>
  </g>
  <g>
    <rect class="d6f07ebe-bb28-4c61-a669-7d347939fcfb prt-icon-color" x="18.83" y="21.34" width="31.39" height="22.6"/>
    <path class="d6f07ebe-bb28-4c61-a669-7d347939fcfb prt-icon-color" d="M36.9,4.63,17.44,23.46a1.16,1.16,0,0,0,.75,2H57.11a1.16,1.16,0,0,0,.75-2L38.4,4.63A1.13,1.13,0,0,0,36.9,4.63Z" transform="translate(-3.13 -2.87)"/>
    <rect class="18a22246-4d7e-4421-8cb3-720e467dee5d" x="28.88" y="28.88" width="11.3" height="15.07"/>
    <polygon class="d6f07ebe-bb28-4c61-a669-7d347939fcfb prt-icon-color" points="42.69 14.56 48.96 16.07 48.96 5.02 42.69 5.02 42.69 14.56"/>
  </g>
</svg>
