<?xml version="1.0" encoding="utf-8"?>
<!-- Generator: Adobe Illustrator 22.0.1, SVG Export Plug-In . SVG Version: 6.00 Build 0)  -->
<svg version="1.1" id="Layer_1" xmlns="http://www.w3.org/2000/svg" xmlns:xlink="http://www.w3.org/1999/xlink" x="0px" y="0px"
	 viewBox="0 0 64 64" style="enable-background:new 0 0 64 64;" xml:space="preserve"
	 
	 class="prt-option-icon">
<style type="text/css">
	.prt-grundstuck-st0{fill:#D9DCE1;}
	.prt-grundstuck-st1{fill:#56AAFF;}
	.prt-grundstuck-st2{fill:#0478ED;}
	.prt-grundstuck-st3{fill:#FFFFFF;}
</style>
<path class="prt-grundstuck-st0" d="M57.9,56.8H6.1c-2.2,0-3.9-1.7-3.9-3.9V20.5h59.7v32.4C61.8,55.1,60.1,56.8,57.9,56.8z"/>
<path class="prt-grundstuck-st1 prt-icon-color" d="M9.9,15.3H6.1c-2.2,0-3.9,1.7-3.9,3.9v33.7c0-2.2,1.7-3.9,3.9-3.9h3.9V15.3z"/>
<path class="prt-grundstuck-st1 prt-icon-color" d="M54.1,15.3h3.9c2.2,0,3.9,1.7,3.9,3.9v33.7c0-2.2-1.7-3.9-3.9-3.9h-3.9V15.3z"/>
<polygon class="prt-grundstuck-st2 prt-icon-color-dark" points="49.5,20.5 14.5,20.5 17.5,8.8 46.5,8.8 "/>
<rect x="16.4" y="20.5" class="prt-grundstuck-st3" width="31.1" height="18.2"/>
<polygon class="prt-grundstuck-st3" points="39.8,18 32,12.4 24.2,18 24.2,24.4 39.8,24.4 "/>
<rect x="37.2" y="6.2" class="prt-grundstuck-st2 prt-icon-color-dark" width="3.9" height="2.6"/>
<rect x="28.1" y="25.7" class="prt-grundstuck-st2 prt-icon-color-dark" width="7.8" height="13"/>
<circle class="prt-grundstuck-st3" cx="33.3" cy="32.1" r="1.3"/>
</svg>
