<?xml version="1.0" encoding="utf-8"?>
<!-- Generator: Adobe Illustrator 22.0.1, SVG Export Plug-In . SVG Version: 6.00 Build 0)  -->
<svg version="1.1" id="Layer_1" xmlns="http://www.w3.org/2000/svg" xmlns:xlink="http://www.w3.org/1999/xlink" x="0px" y="0px"
	 viewBox="0 0 64 64" style="enable-background:new 0 0 64 64;" xml:space="preserve" 
	 
	 class="prt-option-icon">
<style type="text/css">
	.prt-haus-st0{fill:#56AAFF;}
	.prt-haus-st1{fill:#D9DCE1;}
	.prt-haus-st2{fill:#0478ED;}
	.prt-haus-st3{fill:#FFFFFF;}
	.prt-haus-st4{fill:none;stroke:#D9DCE1;stroke-width:2;stroke-miterlimit:10;}
</style>
<polygon class="prt-haus-st0 prt-icon-color" points="62.2,28.2 1.8,28.2 6.9,8.1 57.1,8.1 "/>
<rect x="5.6" y="28.2" class="prt-haus-st1" width="52.8" height="31.4"/>
<polygon class="prt-haus-st1" points="47.1,21.9 32,11.9 16.9,21.9 16.9,32 47.1,32 "/>
<rect x="42.1" y="4.3" class="prt-haus-st0 prt-icon-color" width="7.5" height="5"/>
<rect x="23.2" y="57.1" class="prt-haus-st0 prt-icon-color" width="17.6" height="2.5"/>
<rect x="25.7" y="35.8" class="prt-haus-st2 prt-icon-color-dark" width="12.6" height="21.4"/>
<circle class="prt-haus-st3" cx="34.5" cy="48.3" r="1.3"/>
<rect x="44.6" y="35.8" class="prt-haus-st3" width="7.5" height="13.8"/>
<path class="prt-haus-st3" d="M39.5,28.2H24.5c0-4.1,3.4-7.5,7.5-7.5S39.5,24.1,39.5,28.2z"/>
<line class="prt-haus-st4" x1="43.3" y1="43.3" x2="53.4" y2="43.3"/>
<rect x="11.9" y="35.8" class="prt-haus-st3" width="7.5" height="13.8"/>
<line class="prt-haus-st4" x1="10.6" y1="43.3" x2="20.7" y2="43.3"/>
</svg>
