<svg id="7e176f51-4193-4a24-bd9b-57e91d3c0e0c" data-name="Layer 1" xmlns="http://www.w3.org/2000/svg" viewBox="0 0 59.05 59.41"
class="prt-icon prt-option-icon">
  <defs>
    <style>
      .\37 1553abf-8d4c-4a57-90d4-f85e74266d33 {
        fill: #d9dce1;
      }

      .b0499651-a228-4997-a317-8639c7b72b03 {
        fill: #56aaff;
      }
    </style>
  </defs>
  <title>immo-type</title>
  <path class="71553abf-8d4c-4a57-90d4-f85e74266d33" d="M54.63,35.62l-9.71,9.72L28.06,43.61l9.35-3.19a3,3,0,0,0,1.85-3.57h0a2.9,2.9,0,0,0-3.45-2L20.44,38.94A6.21,6.21,0,0,0,19,38.82a6.74,6.74,0,0,0-4.55,1.72h-.12L2.48,52.72l14.76,9.84L23.76,54H47.13L61.52,35.62A5,5,0,0,0,54.63,35.62Z" transform="translate(-2.48 -3.14)"/>
  <path class="b0499651-a228-4997-a317-8639c7b72b03 prt-icon-color" d="M35.94,13.84,49.47,27.5c.12.12.12.25.12.49l-.37,4.8a.8.8,0,0,1-.74.74l-3.56-1.85-.37-.37-.49-2L41.35,30l-1.72-1.72.61-2.59-2.58.62-1.11-1.11L37.17,23,35,23.56l-3-3.2Z" transform="translate(-2.48 -3.14)"/>
  <path class="b0499651-a228-4997-a317-8639c7b72b03 prt-icon-color" d="M35.57,18a8.62,8.62,0,0,0,0-12.3,8.6,8.6,0,0,0-12.3,0,8.6,8.6,0,0,0,0,12.3A8.73,8.73,0,0,0,35.57,18Zm-9.84-6.15a2.61,2.61,0,1,1,3.69,0A2.68,2.68,0,0,1,25.73,11.88Z" transform="translate(-2.48 -3.14)"/>
</svg>
