<?xml version="1.0" encoding="utf-8"?>
<!-- Generator: Adobe Illustrator 22.0.1, SVG Export Plug-In . SVG Version: 6.00 Build 0)  -->
<svg version="1.1" id="Layer_1" xmlns="http://www.w3.org/2000/svg" xmlns:xlink="http://www.w3.org/1999/xlink" x="0px" y="0px"
	 viewBox="0 0 64 64" style="enable-background:new 0 0 64 64;" xml:space="preserve"
	 
	 class="prt-option-icon">
<style type="text/css">
	.prt-miete-st0{fill:#D9DCE1;}
	.prt-miete-st1{fill:none;stroke:#D9DCE1;stroke-width:2;stroke-linecap:round;stroke-linejoin:round;stroke-miterlimit:10;}
	.prt-miete-st2{fill:none;stroke:#D9DCE1;stroke-width:2;stroke-linejoin:round;stroke-miterlimit:10;}
	.prt-miete-st3{fill:#56AAFF;}
	.prt-miete-st4{fill:none;stroke:#FFFFFF;stroke-width:2;stroke-miterlimit:10;}
</style>
<g>
	<rect x="51" y="9" class="prt-miete-st0" width="4" height="46"/>
	<line class="prt-miete-st1" x1="8" y1="13" x2="57" y2="13"/>
	<line class="prt-miete-st2" x1="16" y1="21" x2="16" y2="13"/>
	<line class="prt-miete-st2" x1="40" y1="21" x2="40" y2="13"/>
	<path class="prt-miete-st3 prt-icon-color" d="M47,43H9c-0.6,0-1-0.4-1-1V20c0-0.6,0.4-1,1-1h38c0.6,0,1,0.4,1,1v22C48,42.6,47.6,43,47,43z"/>
	<polyline class="prt-miete-st4" points="27,35 23,35 23,28 27,28 	"/>
	<line class="prt-miete-st4" x1="26" y1="31" x2="23" y2="31"/>
	<path class="prt-miete-st4" d="M15,36v-8h1.9c0.9,0,1.7,0.5,2,1.3c0.4,1.4-0.6,2.7-1.9,2.7h-2l5.5,5.5"/>
	<polyline class="prt-miete-st4" points="30,36 30,27 35,36 35,27 	"/>
	<rect x="17" y="36" class="prt-miete-st3 prt-icon-color" width="20" height="4"/>
	<rect x="18" y="23" class="prt-miete-st3 prt-icon-color" width="20" height="4"/>
	<rect x="10" y="29" class="prt-miete-st3 prt-icon-color" width="4" height="6"/>
	<line class="prt-miete-st4" x1="37" y1="28" x2="43" y2="28"/>
	<line class="prt-miete-st4" x1="40" y1="36" x2="40" y2="28"/>
</g>
</svg>
