<svg id="ee165456-24c7-40ef-933c-74a11be0cce0" data-name="Layer 1" xmlns="http://www.w3.org/2000/svg" viewBox="0 0 60.58 60.58" 
class="prt-icon prt-option-icon">
  <defs>
    <style>
      .\34 87a7225-ca97-43b9-8c7f-d771f9863cf8, .c49434df-dba1-4073-b41e-e3922b41bdb3 {
        fill: none;
        stroke: #d9dce1;
        stroke-miterlimit: 10;
      }

      .\34 87a7225-ca97-43b9-8c7f-d771f9863cf8 {
        stroke-width: 3px;
      }

      .c49434df-dba1-4073-b41e-e3922b41bdb3 {
        stroke-width: 2px;
      }

      .ff02d07a-59a4-4c11-9c2d-d74eb31f50cd {
        fill: #56aaff;
      }
    </style>
  </defs>
  <title>room</title>
  <path class="487a7225-ca97-43b9-8c7f-d771f9863cf8" d="M36.6,9.15v-6H5.8A2.68,2.68,0,0,0,3.12,5.8V58A2.69,2.69,0,0,0,5.8,60.71H58A2.69,2.69,0,0,0,60.71,58V5.8A2.68,2.68,0,0,0,58,3.13H46v6" transform="translate(-1.63 -1.63)"/>
  <line class="c49434df-dba1-4073-b41e-e3922b41bdb3" x1="2.17" y1="30.29" x2="23.59" y2="30.29"/>
  <line class="c49434df-dba1-4073-b41e-e3922b41bdb3" x1="23.59" y1="45.02" x2="23.59" y2="59.75"/>
  <line class="c49434df-dba1-4073-b41e-e3922b41bdb3" x1="32.97" y1="45.02" x2="32.97" y2="59.75"/>
  <line class="c49434df-dba1-4073-b41e-e3922b41bdb3" x1="23.59" y1="19.58" x2="23.59" y2="38.32"/>
  <line class="c49434df-dba1-4073-b41e-e3922b41bdb3" x1="23.59" y1="2.17" x2="23.59" y2="12.88"/>
  <line class="c49434df-dba1-4073-b41e-e3922b41bdb3" x1="59.75" y1="36.99" x2="31.63" y2="36.99"/>
  <path class="ff02d07a-59a4-4c11-9c2d-d74eb31f50cd prt-icon-color" d="M23.88,22a7.18,7.18,0,0,1-4.35-1.08c-3.4-2.21-3.29-6.59-3.28-6.84v-.42H23.9v.83h-6.8c.11,1.52.88,6.7,6.38,6.7h.42Z" transform="translate(-1.63 -1.63)"/>
  <path class="ff02d07a-59a4-4c11-9c2d-d74eb31f50cd prt-icon-color" d="M44.62,9.15a5.6,5.6,0,0,1-.87,3.44c-1.76,2.68-5.26,2.6-5.47,2.59H38v-6h.66v5.38c1.22-.09,5.36-.7,5.36-5.06V9.14Z" transform="translate(-1.63 -1.63)"/>
  <path class="ff02d07a-59a4-4c11-9c2d-d74eb31f50cd prt-icon-color" d="M23.87,47.37a5.69,5.69,0,0,1-3.79-1.08c-3-2.18-2.86-6.5-2.86-6.75v-.41h6.67v.81H18c.1,1.51.77,6.62,5.57,6.62h.36Z" transform="translate(-1.63 -1.63)"/>
</svg>
