<?xml version="1.0" encoding="utf-8"?>
<!-- Generator: Adobe Illustrator 22.0.1, SVG Export Plug-In . SVG Version: 6.00 Build 0)  -->
<svg version="1.1" id="Layer_1" xmlns="http://www.w3.org/2000/svg" xmlns:xlink="http://www.w3.org/1999/xlink" x="0px" y="0px"
	 viewBox="0 0 64 64" style="enable-background:new 0 0 64 64;" xml:space="preserve"
	 
	 class="prt-option-icon">
<style type="text/css">
	.prt-wohnung-st0{fill:#56AAFF;}
	.prt-wohnung-st1{fill:#D9DCE1;}
	.prt-wohnung-st2{fill:#0478ED;}
	.prt-wohnung-st3{fill:#FFFFFF;}
</style>
<polygon class="prt-wohnung-st0 prt-icon-color" points="60.4,23.1 1.7,23.1 6.8,5.2 55.3,5.2 "/>
<rect x="5.5" y="23.1" class="prt-wohnung-st1" width="51" height="39.5"/>
<polygon class="prt-wohnung-st1" points="46.3,18 31,9.1 15.7,18 15.7,26.9 46.3,26.9 "/>
<rect x="41.2" y="1.4" class="prt-wohnung-st0 prt-icon-color" width="7.6" height="5.1"/>
<rect x="25.9" y="46" class="prt-wohnung-st2 prt-icon-color-dark" width="10.2" height="16.6"/>
<circle class="prt-wohnung-st3" cx="33.6" cy="54.9" r="1.3"/>
<rect x="42.5" y="46" class="prt-wohnung-st3" width="7.6" height="7.6"/>
<rect x="11.9" y="46" class="prt-wohnung-st3" width="7.6" height="7.6"/>
<rect x="42.5" y="28.2" class="prt-wohnung-st3" width="7.6" height="7.6"/>
<rect x="27.2" y="28.2" class="prt-wohnung-st3" width="7.6" height="7.6"/>
<rect x="11.9" y="28.2" class="prt-wohnung-st3" width="7.6" height="7.6"/>
<path class="prt-wohnung-st3" d="M38.7,23.1H23.4c0-4.2,3.4-7.6,7.6-7.6S38.7,18.9,38.7,23.1z"/>
<rect x="3" y="39.6" class="prt-wohnung-st0 prt-icon-color" width="56.1" height="2.5"/>
<path class="prt-wohnung-st2 prt-icon-color-dark" d="M62.9,62.6c0-3.8-3.2-7-7-7s-7,3.2-7,7"/>
<path class="prt-wohnung-st2 prt-icon-color-dark" d="M51.4,62.6c0-2.7-2.2-4.8-4.8-4.8s-4.8,2.2-4.8,4.8"/>
<path class="prt-wohnung-st2 prt-icon-color-dark" d="M10.6,62.6c0-2.7-2.2-4.8-4.8-4.8s-4.7,2.2-4.7,4.8"/>
</svg>
